<svg width="40" height="40" viewBox="0 0 40 40" fill="none" xmlns="http://www.w3.org/2000/svg">
<rect width="40" height="40" rx="20" fill="#ED5C5E"/>
<path d="M31.375 26.25H21.9039C21.875 27.0238 21.3293 27.5 20.625 27.5H18.25C17.5199 27.5 16.9602 26.8176 16.9699 26.25H7.625C7.28125 26.25 7 26.5312 7 26.875V27.5C7 28.875 8.125 30 9.5 30H29.5C30.875 30 32 28.875 32 27.5V26.875C32 26.5312 31.7188 26.25 31.375 26.25ZM29.5 11.875C29.5 10.8438 28.6562 10 27.625 10H11.375C10.3438 10 9.5 10.8438 9.5 11.875V25H29.5V11.875ZM27 22.5H12V12.5H27V22.5Z" fill="#F2F2F2"/>
</svg>
