<svg width="40" height="40" viewBox="0 0 40 40" fill="none" xmlns="http://www.w3.org/2000/svg">
<rect width="40" height="40" rx="20" fill="#ED5C5E"/>
<path d="M25.2812 7H14.3438C13.0498 7 12 8.0498 12 9.34375V29.6562C12 30.9502 13.0498 32 14.3438 32H25.2812C26.5752 32 27.625 30.9502 27.625 29.6562V9.34375C27.625 8.0498 26.5752 7 25.2812 7ZM19.8125 30.4375C18.9482 30.4375 18.25 29.7393 18.25 28.875C18.25 28.0107 18.9482 27.3125 19.8125 27.3125C20.6768 27.3125 21.375 28.0107 21.375 28.875C21.375 29.7393 20.6768 30.4375 19.8125 30.4375ZM25.2812 25.1641C25.2812 25.4863 25.0176 25.75 24.6953 25.75H14.9297C14.6074 25.75 14.3438 25.4863 14.3438 25.1641V9.92969C14.3438 9.60742 14.6074 9.34375 14.9297 9.34375H24.6953C25.0176 9.34375 25.2812 9.60742 25.2812 9.92969V25.1641Z" fill="#F2F2F2"/>
</svg>
