<svg width="40" height="40" viewBox="0 0 40 40" fill="none" xmlns="http://www.w3.org/2000/svg">
<rect width="40" height="40" rx="20" fill="#ED5C5E"/>
<path d="M10.4849 15.7822L19.584 19.9099C19.8496 20.0306 20.15 20.0306 20.4156 19.9099L29.5148 15.7822C30.1612 15.4889 30.1612 14.5119 29.5148 14.2186L20.416 10.0905C20.2855 10.0309 20.1437 10 20.0002 10C19.8567 10 19.7149 10.0309 19.5844 10.0905L10.4849 14.2182C9.83838 14.5116 9.83838 15.4889 10.4849 15.7822ZM29.5151 19.2306L27.246 18.2021L20.932 21.0642C20.6367 21.1982 20.323 21.2661 20 21.2661C19.677 21.2661 19.3637 21.1982 19.068 21.0642L12.7544 18.2021L10.4849 19.2306C9.83838 19.5236 9.83838 20.5001 10.4849 20.7931L19.584 24.9177C19.8496 25.038 20.15 25.038 20.4156 24.9177L29.5151 20.7931C30.1616 20.5001 30.1616 19.5236 29.5151 19.2306ZM29.5151 24.2227L27.2546 23.1981L20.932 26.0641C20.6367 26.1981 20.323 26.2661 20 26.2661C19.677 26.2661 19.3637 26.1981 19.068 26.0641L12.7458 23.1981L10.4849 24.2227C9.83838 24.5157 9.83838 25.4923 10.4849 25.7852L19.584 29.9098C19.8496 30.0301 20.15 30.0301 20.4156 29.9098L29.5151 25.7852C30.1616 25.4923 30.1616 24.5157 29.5151 24.2227Z" fill="#F2F2F2"/>
</svg>
