<?xml version="1.0" encoding="UTF-8"?>
<svg width="119px" height="119px" viewBox="0 0 119 119" version="1.1" xmlns="http://www.w3.org/2000/svg" xmlns:xlink="http://www.w3.org/1999/xlink">
    <title>Group 6</title>
    <g id="Symbols" stroke="none" stroke-width="1" fill="none" fill-rule="evenodd">
        <g id="Group" transform="translate(0, 0.64)">
            <path d="M14.75,118 C6.62,118 0,111.39 0,103.26 L0,34.34 C0,30.4 1.53,26.7 4.32,23.91 L23.92,4.32 C26.68,1.54 30.39,0 34.34,0 C50.1888889,0 62.0755556,0 70,0 C77.3933333,0 88.4833333,0 103.27,0 C107.22,0 110.92,1.54 113.71,4.33 C116.49,7.12 118.02,10.82 118.010097,14.76 L117.98,56.11 L117.98,61.9 C117.98,61.9 117.96,80.57 117.96,80.57 C117.96,83.73 116.91,86.86 115.02,89.38 C114.61,89.94 114.15,90.48 113.64,90.98 L90.95,113.68 C88.15,116.46 84.45,117.99 80.52,117.99 L14.75,117.99 L14.75,118 Z" id="Path" fill="#000000"></path>
            <path d="M36.2552211,80.1577718 L21.0465959,80.1578947 C19.1135993,80.1578947 17.5465959,78.5908914 17.5465959,76.6578947 C17.5465959,74.7248981 19.1135993,73.1578947 21.0465959,73.1578947 L32.7906858,73.1581766 C33.7117432,75.6701895 34.8790644,78.0185992 36.2552211,80.1577718 Z M30.410841,59.5 C30.410841,60.5380661 30.4495661,61.5651044 30.5253509,62.5790848 L11.2984363,62.5789474 C9.36543968,62.5789474 7.7984363,61.011944 7.7984363,59.0789474 C7.7984363,57.1459507 9.36543968,55.5789474 11.2984363,55.5789474 L30.5971392,55.5780428 C30.4740993,56.8645219 30.410841,58.1732539 30.410841,59.5 Z M36.285597,38 C36.4570725,38 36.6256679,38.0123314 36.7905447,38.0361557 C35.3401958,40.1530125 34.1008267,42.4900751 33.1106285,45.0008314 L21.0465959,45 C19.1135993,45 17.5465959,43.4329966 17.5465959,41.5 C17.5465959,39.5670034 19.1135993,38 21.0465959,38 L36.285597,38 Z" id="Combined-Shape" fill="#FFFFFF"></path>
            <circle id="Oval" fill="#FFFFFF" cx="68" cy="58" r="32"></circle>
            <path d="M83.2378611,46.2721389 L84.9231688,47.9574466 C85.5822771,48.6165549 85.5822771,49.6907528 84.9230864,50.3499434 L62.7873995,72.4753226 C61.5767832,73.6859389 59.5759722,73.5787526 58.5041134,72.245159 L50.6652571,62.5354908 C50.0779927,61.808751 50.1914029,60.7404268 50.9202191,60.157382 L52.7756631,58.6575648 C53.5024029,58.0703004 54.570727,58.1837106 55.1539725,58.9127752 L60.9790265,66.1284515 L80.8454466,46.2721389 C81.5045549,45.6130306 82.5787528,45.6130306 83.2378611,46.2721389 Z" id="Path" stroke="#000000" fill="#000000"></path>
        </g>
    </g>
</svg>