<?xml version="1.0" encoding="UTF-8"?>
<svg width="119px" height="118px" viewBox="0 0 119 118" version="1.1" xmlns="http://www.w3.org/2000/svg" xmlns:xlink="http://www.w3.org/1999/xlink">
    <title>Group 2</title>
    <g id="Symbols" stroke="none" stroke-width="1" fill="none" fill-rule="evenodd">
        <g id="Group">
            <path d="M14.75,118 C6.62,118 0,111.39 0,103.26 L0,34.34 C0,30.4 1.53,26.7 4.32,23.91 L23.92,4.32 C26.68,1.54 30.39,0 34.34,0 L103.27,0 C107.22,0 110.92,1.54 113.71,4.33 C116.49,7.12 118.02,10.82 118.010049,14.76 L117.98,56.11 L117.98,61.9 C117.98,61.9 117.96,80.57 117.96,80.57 C117.96,83.73 116.91,86.86 115.02,89.38 C114.61,89.94 114.15,90.48 113.64,90.98 L90.95,113.68 C88.15,116.46 84.45,117.99 80.52,117.99 L14.75,117.99 L14.75,118 Z" id="Path" fill="#000000"></path>
            <path d="M89.5379645,41.5837885 C90.1629697,42.2087949 90.9817365,42.5213181 91.8004633,42.5213181 C92.6191902,42.5213181 93.437997,42.2088189 94.0629622,41.5837885 C95.3129726,40.3337757 95.3129726,38.3087148 94.0629622,37.058782 L80.9412528,23.9370471 C79.6912424,22.6870343 77.6661855,22.6870343 76.4162551,23.9370471 C75.1663247,25.18706 75.1662447,27.2121208 76.4162551,28.4620536 L80.7131709,32.7589778 L73.0255869,40.4465768 C71.7442962,38.5527974 69.8318003,37.2183836 67.6161818,36.8434198 C61.9005342,35.8778099 56.1000858,35.8778099 50.3816382,36.8434198 C48.1660197,37.2184236 46.2534438,38.5559174 44.9722331,40.4465768 L37.284649,32.7589778 L41.5815648,28.4620536 C42.8315753,27.2120408 42.8315753,25.18698 41.5815648,23.9370471 C40.3315544,22.6871143 38.3064975,22.6870343 37.0565671,23.9370471 L23.9380578,37.058782 C22.6880474,38.3087948 22.6880474,40.3338557 23.9380578,41.5837885 C24.563063,42.2087949 25.3818298,42.5213181 26.2005567,42.5213181 C27.0192835,42.5213181 27.8380903,42.2088189 28.4630555,41.5837885 L32.7599713,37.2868643 L43.1192577,47.6461708 C42.5442529,55.1931284 42.5442529,62.8087266 43.1192577,70.3560042 L32.7599713,80.7153107 L28.4630555,76.4183865 C27.2130451,75.1683737 25.1879882,75.1683737 23.9380578,76.4183865 C22.6881274,77.6683994 22.6880474,79.6934602 23.9380578,80.943393 L37.0597672,94.0651279 C37.6816443,94.6870063 38.5004192,94.9995375 39.322266,94.9995375 C40.1409928,94.9995375 40.9597997,94.6870383 41.5847649,94.0620079 C42.8347753,92.811995 42.8347753,90.7869342 41.5847649,89.5370014 L37.2878491,85.2400772 L44.9754331,77.5524782 C46.2567238,79.4462576 48.1692197,80.7806714 50.3848382,81.1556352 C53.244222,81.6400162 56.122406,81.8806427 59.00091,81.8806427 C61.879414,81.8806427 64.760318,81.6400162 67.6193818,81.1556352 C69.8350003,80.7806314 71.7475762,79.4431376 73.0287869,77.5524782 L80.716371,85.2400772 L76.4194552,89.5370014 C75.1694447,90.7870142 75.1694447,92.812075 76.4194552,94.0620079 C77.0413323,94.6870143 77.8632272,94.9995375 78.678834,94.9995375 C79.4975608,94.9995375 80.3163676,94.6870383 80.9413328,94.0620079 L94.0630422,80.940273 C95.3130526,79.6902602 95.3130526,77.6651993 94.0630422,76.4152665 C92.8130318,75.1653336 90.7879749,75.1652536 89.5380445,76.4152665 L85.2411287,80.7121907 L74.8786423,70.3528842 C75.4536471,62.8059266 75.4536471,55.1903283 74.8786423,47.6430508 L85.2379286,37.2837443 L89.5379645,41.5837885 Z" id="Shape" fill="#FFFFFF" fill-rule="nonzero" transform="translate(59.0005, 58.9995) rotate(-182) translate(-59.0005, -58.9995)"></path>
            <path d="M63.6572143,49.1672271 C63.6572143,55.8314548 53.6572143,55.8314548 53.6572143,49.1672271 C53.6572143,42.4981215 63.6572143,42.4981215 63.6572143,49.1672271 Z" id="Path" fill="#000000" transform="translate(58.6572, 49.1654) rotate(-182) translate(-58.6572, -49.1654)"></path>
        </g>
    </g>
</svg>