<?xml version="1.0" encoding="UTF-8"?>
<svg width="119px" height="118px" viewBox="0 0 119 118" version="1.1" xmlns="http://www.w3.org/2000/svg" xmlns:xlink="http://www.w3.org/1999/xlink">
    <title>Group 8</title>
    <g id="Symbols" stroke="none" stroke-width="1" fill="none" fill-rule="evenodd">
        <g id="Group">
            <path d="M14.75,118 C6.62,118 0,111.39 0,103.26 L0,34.34 C0,30.4 1.53,26.7 4.32,23.91 L23.92,4.32 C26.68,1.54 30.39,0 34.34,0 L103.27,0 C107.22,0 110.92,1.54 113.71,4.33 C116.49,7.12 118.02,10.82 118.010049,14.76 L117.98,56.11 L117.98,61.9 C117.98,61.9 117.96,80.57 117.96,80.57 C117.96,83.73 116.91,86.86 115.02,89.38 C114.61,89.94 114.15,90.48 113.64,90.98 L90.95,113.68 C88.15,116.46 84.45,117.99 80.52,117.99 L14.75,117.99 L14.75,118 Z" id="Path" fill="#D73F3F"></path>
            <g transform="translate(37, 10)" fill="#FFFFFF" id="Path">
                <path d="M43.9917588,3.32175122 L43.9917588,94.6782142 C43.9917588,96.5217861 42.5000937,98.0082698 40.6705376,98 L34.5884997,97.9584435 L1.4339764,85.5101808 C0.568645814,85.1780057 0,84.3475679 0,83.4091731 L0,45.3419042 L27.2125866,45.3419042 L14.8589624,57.7735581 C14.339764,58.3050383 14.339764,59.1603892 14.8589624,59.6918694 L16.7626896,61.6101808 C17.2406818,62.0918347 17.9659112,62.1333566 18.4933508,61.7596596 C18.5592808,61.7181377 18.6087282,61.660007 18.6664169,61.6101808 L32.4952238,47.6837388 C32.6188425,47.5591731 32.7507024,47.4179987 32.8578385,47.293433 C35.0664919,44.6941627 35.1324218,40.8990619 33.0473872,38.2499653 C32.874321,38.0340515 32.7012549,37.826442 32.4952238,37.6354413 L18.6664169,23.700695 C18.5840045,23.6176512 18.4933508,23.5429118 18.3944559,23.4847811 C17.8752575,23.1858235 17.2077168,23.2605629 16.7626896,23.700695 L14.8589624,25.6190063 C14.339764,26.1504865 14.339764,27.0141418 14.8589624,27.5373176 L27.2125866,39.9855803 L0,39.9855803 L0,14.607401 C0,13.6773106 0.568645814,12.8385685 1.4339764,12.5230021 L34.7450833,0 L40.7035025,0 C42.5248174,0 44,1.48648367 44,3.32175122 L43.9917588,3.32175122 Z"></path>
            </g>
        </g>
    </g>
</svg>