<?xml version="1.0" encoding="UTF-8"?>
<svg width="119px" height="119px" viewBox="0 0 119 119" version="1.1" xmlns="http://www.w3.org/2000/svg" xmlns:xlink="http://www.w3.org/1999/xlink">
    <title>Group 5</title>
    <g id="Symbols" stroke="none" stroke-width="1" fill="none" fill-rule="evenodd">
        <g id="Group" transform="translate(0, 0.64)">
            <path d="M14.75,118 C6.62,118 0,111.39 0,103.26 L0,34.34 C0,30.4 1.53,26.7 4.32,23.91 L23.92,4.32 C26.68,1.54 30.39,0 34.34,0 L103.27,0 C107.22,0 110.92,1.54 113.71,4.33 C116.49,7.12 118.02,10.82 118.010049,14.76 L117.98,56.11 L117.98,61.9 C117.98,61.9 117.96,80.57 117.96,80.57 C117.96,83.73 116.91,86.86 115.02,89.38 C114.61,89.94 114.15,90.48 113.64,90.98 L90.95,113.68 C88.15,116.46 84.45,117.99 80.52,117.99 L14.75,117.99 L14.75,118 Z" id="Path" fill="#000000"></path>
            <path d="M27.62,61.28 C26.82,60.29 26.97,58.83 27.97,58.03 L31.57,55.12 C32.56,54.32 34.02,54.47 34.82,55.47 L46.8,70.31 L86.11,31.02 C87.01,30.12 88.48,30.12 89.38,31.02 L92.65,34.29 C93.55,35.19 93.55,36.66 92.65,37.56 L49.7,80.49 C47.76,82.43 44.55,82.26 42.83,80.12 L27.62,61.28 Z" id="Path" fill="#FFFFFF"></path>
        </g>
    </g>
</svg>