<?xml version="1.0" encoding="UTF-8"?>
<svg width="120px" height="119px" viewBox="0 0 120 119" version="1.1" xmlns="http://www.w3.org/2000/svg" xmlns:xlink="http://www.w3.org/1999/xlink">
    <title>Group 7</title>
    <g id="Symbols" stroke="none" stroke-width="1" fill="none" fill-rule="evenodd">
        <g id="Group" transform="translate(0, 0.64)">
            <path d="M14.9987227,118 C6.73163013,118 0,111.39 0,103.26 L0,34.34 C0,30.4 1.55579971,26.7 4.39284625,23.91 L24.3233524,4.32 C27.129893,1.54 30.9024531,0 34.9190602,0 L105.011396,0 C109.028003,0 112.790395,1.54 115.627441,4.33 C118.454319,7.12 120.010119,10.82 120,14.76 L119.969445,56.11 L119.969445,61.9 C119.969445,61.9 119.949107,80.57 119.949107,80.57 C119.949107,83.73 118.881402,86.86 116.959531,89.38 C116.542618,89.94 116.074861,90.48 115.556261,90.98 L92.4836496,113.68 C89.6364345,116.46 85.874043,117.99 81.8777732,117.99 L14.9987227,117.99 L14.9987227,118 Z" id="Path" fill="#000000"></path>
            <line x1="42.5" y1="98.8198872" x2="87.5" y2="98.8198872" id="Line" stroke="#FFFFFF" stroke-width="6" stroke-linecap="square" stroke-dasharray="10"></line>
            <path d="M98.05,30.87 L88.74,21.55 C88,20.81 86.79,20.81 86.05,21.55 L71.96,35.64 L71.93,35.68 L49.64,57.97 L44.64,62.97 L41.26,66.35 L28.27,79.34 C28.03,79.58 27.88,79.88 27.82,80.22 L22.36,95.18 C22.17,95.71 22.27,96.23 22.54,96.64 C22.6,96.72 22.67,96.8 22.74,96.87 C23.15,97.29 23.79,97.49 24.44,97.25 L39.4,91.79 C39.72,91.74 40.03,91.58 40.26,91.34 L54.91,76.7 L63.12,68.5 L63.14,68.48 L83.98,47.65 L86.95,44.67 L98.07,33.55 C98.81,32.81 98.81,31.6 98.07,30.86 L98.05,30.87 Z" id="Path" fill="#FFFFFF"></path>
        </g>
    </g>
</svg>